<?xml version="1.0" encoding="UTF-8"?>
<svg id="Layer_2" data-name="Layer 2" xmlns="http://www.w3.org/2000/svg" viewBox="0 0 118.05 56.82">
  <defs>
    <style>
      .cls-1 {
        fill: #fff;
        stroke-width: 0px;
      }
    </style>
  </defs>
  <g id="OBJECTS">
    <g>
      <path class="cls-1" d="m70.38,51.48h-22.72c-1.99,0-3.6-1.61-3.6-3.6s1.61-3.6,3.6-3.6h22.72c1.99,0,3.6,1.61,3.6,3.6s-1.61,3.6-3.6,3.6Z"/>
      <g>
        <path class="cls-1" d="m81.71,47.89c-.99,0-1.98-.41-2.69-1.21-1.32-1.49-1.18-3.76.31-5.08l11.45-10.15-11.45-10.15c-1.49-1.32-1.62-3.59-.31-5.08,1.32-1.49,3.59-1.62,5.08-.31l14.49,12.84c.77.68,1.21,1.66,1.21,2.69s-.44,2.01-1.21,2.69l-14.49,12.84c-.68.61-1.54.9-2.38.9Z"/>
        <path class="cls-1" d="m36.34,47.89c-.85,0-1.7-.3-2.38-.9l-14.49-12.84c-.77-.68-1.21-1.66-1.21-2.69s.44-2.01,1.21-2.69l14.49-12.84c1.49-1.32,3.76-1.18,5.08.31,1.32,1.49,1.18,3.76-.31,5.08l-11.45,10.15,11.45,10.15c1.49,1.32,1.62,3.59.31,5.08-.71.8-1.7,1.21-2.69,1.21Z"/>
      </g>
      <g>
        <path class="cls-1" d="m14.07,56.82c-.57-.35-14.07-8.8-14.07-28.41S13.5.35,14.07,0l4.16,6.83h.02c-.42.25-10.26,6.61-10.26,21.58s9.84,21.33,10.26,21.6h-.02s-4.16,6.81-4.16,6.81Z"/>
        <path class="cls-1" d="m103.97,56.82l-4.16-6.83h-.02c.42-.25,10.26-6.61,10.26-21.58s-9.84-21.33-10.26-21.6h.02s4.16-6.81,4.16-6.81c.57.35,14.07,8.8,14.07,28.41s-13.5,28.06-14.07,28.41Z"/>
      </g>
    </g>
  </g>
</svg>